HIERARCHY
ROOT Hips
{
 OFFSET 0.000000 0.000000 0.000000
 CHANNELS 6 Xposition Yposition Zposition Yrotation Xrotation Zrotation
 JOINT Chest
 {
  OFFSET 0.000000 10.354800 0.006500
  CHANNELS 3 Yrotation Xrotation Zrotation
  JOINT Chest2
  {
   OFFSET 0.000000 10.435800 -0.013200
   CHANNELS 3 Yrotation Xrotation Zrotation
   JOINT Chest3
   {
    OFFSET 0.000000 10.393700 0.000000
    CHANNELS 3 Yrotation Xrotation Zrotation
    JOINT Chest4
    {
     OFFSET 0.000000 10.383100 0.000000
     CHANNELS 3 Yrotation Xrotation Zrotation
     JOINT Neck
     {
      OFFSET 0.000000 15.694000 0.000000
      CHANNELS 3 Yrotation Xrotation Zrotation
      JOINT Head
      {
       OFFSET 0.000000 9.711000 -0.028000
       CHANNELS 3 Yrotation Xrotation Zrotation
       End Site
       {
        OFFSET 0.000000 18.578700 -0.014800
       }
      }
     }
     JOINT RightCollar
     {
      OFFSET -3.157200 10.367500 0.000000
      CHANNELS 3 Yrotation Xrotation Zrotation
      JOINT RightShoulder
      {
       OFFSET -14.482500 0.000000 0.000000
       CHANNELS 3 Yrotation Xrotation Zrotation
       JOINT RightElbow
       {
        OFFSET 0.000000 -31.707800 0.000000
        CHANNELS 3 Yrotation Xrotation Zrotation
        JOINT RightWrist
        {
         OFFSET 0.000000 -25.659300 0.000000
         CHANNELS 3 Yrotation Xrotation Zrotation
         End Site
         {
          OFFSET 0.000000 -18.994300 0.000000
         }
        }
       }
      }
     }
     JOINT LeftCollar
     {
      OFFSET 3.157200 10.367500 0.000000
      CHANNELS 3 Yrotation Xrotation Zrotation
      JOINT LeftShoulder
      {
       OFFSET 14.482500 0.000000 0.000000
       CHANNELS 3 Yrotation Xrotation Zrotation
       JOINT LeftElbow
       {
        OFFSET 0.000000 -31.707800 0.000000
        CHANNELS 3 Yrotation Xrotation Zrotation
        JOINT LeftWrist
        {
         OFFSET 0.000000 -25.659300 0.000000
         CHANNELS 3 Yrotation Xrotation Zrotation
         End Site
         {
          OFFSET 0.000000 -18.994300 0.000000
         }
        }
       }
      }
     }
    }
   }
  }
 }
 JOINT RightHip
 {
  OFFSET -8.365600 -0.032100 -0.003200
  CHANNELS 3 Yrotation Xrotation Zrotation
  JOINT RightKnee
  {
   OFFSET 0.000000 -43.980000 0.003100
   CHANNELS 3 Yrotation Xrotation Zrotation
   JOINT RightAnkle
   {
    OFFSET 0.000000 -42.882800 0.005200
    CHANNELS 3 Yrotation Xrotation Zrotation
    JOINT RightToe
    {
     OFFSET 0.000000 -4.915500 10.826300
     CHANNELS 3 Yrotation Xrotation Zrotation
     End Site
     {
      OFFSET 0.000000 -1.517500 6.175900
     }
    }
   }
  }
 }
 JOINT LeftHip
 {
  OFFSET 8.365600 -0.032100 -0.003200
  CHANNELS 3 Yrotation Xrotation Zrotation
  JOINT LeftKnee
  {
   OFFSET 0.000000 -43.980000 0.003100
   CHANNELS 3 Yrotation Xrotation Zrotation
   JOINT LeftAnkle
   {
    OFFSET 0.000000 -42.882800 0.005200
    CHANNELS 3 Yrotation Xrotation Zrotation
    JOINT LeftToe
    {
     OFFSET 0.000000 -4.915500 10.826300
     CHANNELS 3 Yrotation Xrotation Zrotation
     End Site
     {
      OFFSET 0.000000 -1.517500 6.175900
     }
    }
   }
  }
 }
}
MOTION
Frames: 8
Frame Time: 0.008333
0.000000 91.618600 0.000000 0.000000 -5.767877 0.000000 0.000000 11.653817 0.000000 0.000000 -5.885947 0.000000 0.000000 -0.000000 0.000000 0.000000 -0.000000 0.000000 0.000000 12.528835 0.000000 0.000000 0.711642 0.000000 0.000000 -0.000000 0.000000 0.000000 0.000000 -90.000000 0.000000 -2.309062 0.000000 0.000000 2.309062 0.000000 0.000000 -0.000000 0.000000 0.000000 -0.000000 90.000000 0.000000 -2.309062 0.000000 0.000000 2.309062 0.000000 0.000000 8.520406 0.000000 0.000000 1.905762 0.000000 -0.000000 -4.658285 0.000000 0.000000 -0.000000 0.000000 0.000000 8.520406 0.000000 0.000000 1.905762 0.000000 -0.000000 -4.658285 0.000000 0.000000 -0.000000 0.000000
-7.550186 146.935995 29.077805 -179.251418 -20.074390 -3.545727 -1.197910 10.784293 3.305989 -0.108623 0.741841 0.257154 -0.184060 1.271236 0.449757 -1.177865 9.887570 3.329898 -1.593734 23.975356 -3.008231 -1.041814 0.171970 -2.912636 1.615530 4.732425 -3.449148 20.454379 -17.443123 -8.181479 35.960011 -33.545816 -23.844698 -6.233552 -3.780636 -26.245285 -3.806429 7.270329 -0.908501 -9.936686 -21.370312 0.904723 -43.518689 -30.862657 32.405805 -9.335938 3.460922 15.372894 12.843667 -50.784062 -13.736797 -164.430904 66.579817 -158.695183 -4.154643 -30.936895 9.105710 0.182163 -0.114689 1.087526 -9.577649 -52.923185 5.610868 168.867294 73.886659 164.474716 -3.422697 -32.004372 2.164212 0.071059 0.270023 0.035662
-3.652058 140.466336 29.828385 -179.203668 -20.059690 -3.675820 -1.219856 10.778400 3.414330 -0.108518 0.740913 0.258849 -0.186819 1.269222 0.446603 -1.180183 9.887538 3.331490 -1.591734 23.974178 -3.013888 -1.033897 0.171569 -2.907349 1.613643 4.739063 -3.460038 20.462842 -17.448084 -8.196198 35.945319 -33.544836 -23.828990 -6.241906 -3.789489 -26.226138 -3.807209 7.269395 -0.913721 -9.913034 -21.350313 0.870580 -43.553229 -30.858713 32.442923 -9.313287 3.447589 15.396210 12.673659 -50.842771 -13.574395 -164.462332 66.544616 -158.726167 -4.124823 -31.088438 9.115820 0.067331 -0.214127 0.030509 -9.764597 -52.883235 5.792811 168.803638 73.939503 164.410268 -3.386877 -31.886326 2.157386 0.038060 0.167420 0.017298
-0.443537 135.138663 30.445716 -179.163323 -20.053104 -3.774688 -1.241685 10.779417 3.494790 -0.107545 0.738891 0.262978 -0.185460 1.273243 0.439304 -1.190005 9.889679 3.322558 -1.581601 23.969802 -3.010844 -1.025504 0.167852 -2.900335 1.620482 4.734546 -3.452146 20.467685 -17.451957 -8.199772 35.938917 -33.529850 -23.826887 -6.250032 -3.796191 -26.205690 -3.805392 7.262646 -0.907317 -9.896169 -21.335376 0.858954 -43.567879 -30.865947 32.459055 -9.265462 3.421170 15.436670 12.535187 -50.883873 -13.452014 -164.498783 66.517641 -158.766513 -4.100777 -31.205103 9.122388 0.029687 -0.114015 0.013463 -9.899322 -52.846950 5.914202 168.726348 73.981009 164.339383 -3.361158 -31.791759 2.147831 0.015713 0.090796 0.007139
1.873419 131.291191 30.891006 -179.126894 -20.052762 -3.848010 -1.264767 10.783740 3.554414 -0.109741 0.742367 0.256106 -0.186438 1.274051 0.438373 -1.209389 9.903069 3.296704 -1.557562 23.958641 -3.005663 -1.008482 0.158139 -2.891860 1.643857 4.717946 -3.430130 20.472061 -17.455198 -8.201945 35.933065 -33.512581 -23.824947 -6.259721 -3.803406 -26.183834 -3.789894 7.244826 -0.887085 -9.875736 -21.315137 0.850003 -43.570035 -30.905839 32.454289 -9.272545 3.430673 15.468448 12.426440 -50.906784 -13.366351 -164.538495 66.497590 -158.803914 -4.087263 -31.284644 9.120591 0.009867 -0.049415 0.004477 -9.995689 -52.816912 5.994633 168.676118 74.010619 164.297516 -3.347103 -31.727694 2.142238 0.006744 0.039955 0.003063
3.336287 128.861234 31.172473 -179.101417 -20.053219 -3.893989 -1.280140 10.790864 3.583262 -0.113869 0.743794 0.249986 -0.191944 1.277263 0.432564 -1.216513 9.903773 3.301862 -1.546149 23.952956 -3.007144 -0.993567 0.153515 -2.895759 1.649362 4.716689 -3.435468 20.479156 -17.468517 -8.209947 35.924466 -33.502129 -23.810455 -6.268335 -3.811808 -26.160115 -3.783690 7.233424 -0.887611 -9.859924 -21.300495 0.852838 -43.570167 -30.925012 32.447505 -9.261949 3.426287 15.494025 12.359679 -50.921002 -13.311957 -164.559476 66.483222 -158.819531 -4.086688 -31.326737 9.119551 0.004427 -0.014270 0.002009 -10.055974 -52.796898 6.038367 168.633764 74.028131 164.259093 -3.336493 -31.692416 2.139797 0.000119 0.012319 0.000054
4.139878 127.525288 31.326104 -179.075515 -20.062391 -3.919767 -1.311723 10.804431 3.579444 -0.106251 0.743000 0.263056 -0.197514 1.279658 0.429339 -1.232368 9.909372 3.296207 -1.537727 23.947694 -3.015173 -0.976721 0.140884 -2.914774 1.659692 4.715937 -3.439065 20.493081 -17.477290 -8.227131 35.909758 -33.495988 -23.795699 -6.275685 -3.822749 -26.138779 -3.771646 7.222034 -0.889325 -9.843976 -21.284843 0.854368 -43.569778 -30.945243 32.438194 -9.252767 3.422948 15.519217 12.309311 -50.917157 -13.282038 -164.569365 66.478081 -158.829574 -4.085291 -31.336216 9.118299 0.002588 -0.008046 0.001175 -10.082522 -52.778742 6.045683 168.614269 74.035622 164.248224 -3.331687 -31.683043 2.137417 -0.000143 0.006902 -0.000065
4.521255 126.888899 31.400094 -179.066889 -20.065198 -3.925617 -1.328177 10.809106 3.573936 -0.113813 0.745678 0.255173 -0.185864 1.278069 0.439819 -1.248647 9.913956 3.290338 -1.523134 23.943580 -3.015994 -0.972225 0.135089 -2.926531 1.663862 4.717631 -3.447063 20.510639 -17.485352 -8.243958 35.894295 -33.496251 -23.780629 -6.282043 -3.834275 -26.126938 -3.766514 7.212219 -0.893270 -9.809978 -21.252269 0.828255 -43.604767 -30.955779 32.470541 -9.242540 3.416953 15.532832 12.282379 -50.920004 -13.274691 -164.586489 66.473029 -158.853153 -4.079790 -31.342756 9.114216 -0.000725 -0.005595 -0.000329 -10.091538 -52.772053 6.046399 168.620398 74.040263 164.253966 -3.333295 -31.676369 2.140040 0.000962 0.004342 0.000437
